<?xml version="1.0" encoding="UTF-8"?>
<svg width="452px" height="93px" viewBox="0 0 452 93" version="1.1" xmlns="http://www.w3.org/2000/svg" xmlns:xlink="http://www.w3.org/1999/xlink">
    <title>Group 7</title>
    <g id="Page-1" stroke="none" stroke-width="1" fill="none" fill-rule="evenodd">
        <g id="Desktop-HD-Copy-22" transform="translate(-499.000000, -3184.000000)" fill="#1D1D1B">
            <g id="Group-7" transform="translate(499.000000, 3184.000000)">
                <polygon id="Fill-1" points="218.125 85.112 225.012 85.112 225.012 0.202 218.125 0.202"></polygon>
                <polygon id="Fill-2" points="221.5683 82.7649 195.7613 56.9569 190.8113 61.9069 221.5683 92.6639 252.3253 61.9069 247.3763 56.9569"></polygon>
                <polygon id="Fill-3" points="70.3629 0 4.0939 66.269 8.9639 71.139 75.2329 4.87"></polygon>
                <polygon id="Fill-4" points="0 31.7358 0 75.2328 43.497 75.2328 43.497 68.2328 7 68.2328 7 31.7358"></polygon>
                <polygon id="Fill-5" points="376.8633 5.1768 442.8253 71.1388 447.6943 66.2688 381.7323 0.3078"></polygon>
                <polygon id="Fill-6" points="444.7881 31.7358 444.7881 68.2328 408.2911 68.2328 408.2911 75.2328 451.7881 75.2328 451.7881 31.7358"></polygon>
            </g>
        </g>
    </g>
</svg>